<?xml version="1.0" ?><!DOCTYPE svg  PUBLIC '-//W3C//DTD SVG 1.1//EN'  'http://www.w3.org/Graphics/SVG/1.1/DTD/svg11.dtd'><svg height="512px" style="enable-background:new 0 0 512 512;" version="1.1" viewBox="0 0 512 512" width="512px" xml:space="preserve" xmlns="http://www.w3.org/2000/svg" xmlns:xlink="http://www.w3.org/1999/xlink"><g id="_x31_20_x2C__Camera_x2C__photography_x2C__capture_x2C__photo_x2C__apeture"><g><path d="M320.604,291.73l-0.77-0.734v-0.035c-1.856-1.783-3.744-3.499-5.706-5.145    h-0.035c-15.782-13.018-36.011-20.857-58.093-20.857c-18.723,0-36.12,5.635-50.607,15.258v0.035l-0.035,0.035l-0.351,0.21    l-0.07,0.035l-0.628,0.456l-0.105,0.069l-1.611,1.12l-0.21,0.141l-0.348,0.279l-0.526,0.385l-0.035,0.035l-0.558,0.385    l-0.281,0.209l-0.281,0.211l-0.558,0.455h-0.035l-0.491,0.42l-0.351,0.279l-0.21,0.141l-0.523,0.455l-0.105,0.07l-0.456,0.385    l-0.383,0.314l-0.14,0.105l-0.702,0.594l-0.347,0.315l-0.491,0.421l-0.035,0.035l-0.526,0.455l-0.242,0.244l-0.281,0.245    l-0.492,0.455l-0.035,0.034l-0.488,0.455l-0.316,0.28l-0.176,0.175l-0.526,0.49l-0.07,0.105l-0.417,0.385l-0.351,0.35    l-0.035,0.035l-0.176,0.209c-13.438,13.439-22.713,31.043-25.721,50.676l-0.035,0.351c-0.175,1.015-0.316,2.03-0.421,3.079    l-0.035,0.42l-0.07,0.701v0.035l-0.105,0.699l-0.035,0.455v0.244l-0.07,0.736v0.174l-0.035,0.525l-0.066,0.631l-0.035,0.804    l-0.035,0.386v0.35l-0.035,0.699v0.105l-0.035,0.63v0.56v0.176l-0.035,0.699v0.281v0.454v0.735v0.734v0.455v0.279l0.035,0.701    v0.174v0.561l0.035,0.629v0.105l0.035,0.701v0.35l0.035,0.385l0.035,0.805l0.066,0.63l0.035,0.524v0.176l0.07,0.734v0.246    l0.035,0.454l0.105,0.7l0,0l0.07,0.734l0.035,0.42c0.105,1.016,0.246,2.066,0.421,3.08l0.035,0.314    c3.008,19.668,12.283,37.272,25.721,50.711c16.52,16.519,39.373,26.737,64.606,26.737c18.688,0,36.081-5.6,50.568-15.224    l0.456-0.314l0.07-0.035v-0.035l0.593-0.385l0.281-0.21l0.839-0.561l0.07-0.069l0.526-0.351l0.386-0.28l0.172-0.139l0.562-0.421    l0.141-0.105l0.874-0.664l0.069-0.07l0.563-0.42l0.242-0.175l0.315-0.245l0.526-0.42v-0.035l0.559-0.42l0.315-0.245l0.21-0.209    l0.523-0.421l0.105-0.07l0.807-0.734l0.141-0.104l0.523-0.456l0.176-0.174l0.35-0.315l0.453-0.385l0.07-0.07l1.541-1.399v-0.035    l0.491-0.455l0.315-0.314l0.172-0.176l0.492-0.489l0.105-0.105l0.385-0.385l0.383-0.386l0.105-0.104    c0.979-1.015,1.927-2.03,2.836-3.079l0.035-0.035l0.733-0.806l0.14-0.175l1.787-2.135l0.176-0.245    c8.956-11.094,15.326-24.322,18.302-38.811v-0.035c0.28-1.365,0.526-2.729,0.769-4.13l0.035-0.351l0.07-0.35l0.105-0.699v-0.105    l0.07-0.595l0.07-0.56l0.034-0.141l0.07-0.7l0.035-0.28l0.07-0.42l0.07-0.734l0,0l0.069-0.7l0.035-0.454l0.035-0.246l0.035-0.734    l0.035-0.176l0.035-0.524l0.035-0.63v-0.105l0.035-0.699l0.035-0.385v-0.35l0.035-0.701v-0.105l0.035-0.629v-0.561l0.035-0.174    v-0.701v-0.279v-0.455v-0.734v-0.735v-0.454v-0.281v-0.699l-0.035-0.176v-0.56l-0.035-0.63v-0.105l-0.035-0.699v-0.35    l-0.035-0.386l-0.035-0.804l-0.035-0.631l-0.035-0.525l-0.035-0.174l-0.035-0.736l-0.035-0.244l-0.035-0.455l-0.069-0.699v-0.035    l-0.07-0.701l-0.07-0.42c-0.105-1.049-0.245-2.064-0.386-3.079l-0.07-0.351C343.281,322.773,334.041,305.17,320.604,291.73     M190.169,431.543c-1.436-1.225-2.801-2.52-4.163-3.814l-0.386-0.419l-0.316-0.281c-14.104-14.103-24.009-32.372-27.683-52.81    l-0.035-0.175l-0.105-0.595l-0.105-0.666l-0.032-0.104l-0.105-0.734l-0.07-0.386l-0.035-0.385l-0.14-0.77v-0.105l-0.105-0.664    l-0.07-0.561v-0.209l-0.105-0.771l-0.035-0.279l-0.07-0.49l-0.07-0.77l0,0l-0.07-0.771l-0.035-0.489l-0.035-0.315l-0.07-0.77    l-0.07-0.735v-0.035l-0.035-0.699v-0.105l-0.035-0.77l-0.035-0.385l-0.035-0.386l-0.032-0.805v-0.105v-0.664l-0.035-0.596v-0.21    l-0.035-0.805v-0.279v-0.49v-0.805v-0.806v-0.489v-0.28l0.035-0.806v-0.209l0.035-0.596v-0.664v-0.105l0.032-0.805l0.035-0.385    l0.035-0.386l0.035-0.805v-0.07l0.035-0.7v-0.068l0.07-0.701l0.07-0.77l0.035-0.315l0.035-0.489l0.07-0.771l0,0l0.07-0.77    l0.07-0.491l0.035-0.279l0.105-0.77v-0.211l0.07-0.559l0.105-0.666v-0.104l0.14-0.771l0.035-0.385l0.07-0.385l0.105-0.734    l0.032-0.105l0.105-0.665l0.105-0.595l0.035-0.175c3.674-20.438,13.579-38.706,27.683-52.81l0.246-0.245l0.07-0.035l0.386-0.421    l0.418-0.385l0,0l0.421-0.385l0.386-0.385l0.035-0.035l0.382-0.35l0.421-0.385l0.421-0.385l0.417-0.385l0.141-0.141l0.281-0.245    l0.421-0.386l0.418-0.35H26.001v150.416H190.169z M310.453,440.152c-15.677,10.22-34.365,16.134-54.453,16.134    c-20.124,0-38.847-5.914-54.527-16.134H26.001v30.342c0,3.396,1.362,6.476,3.604,8.715c2.239,2.239,5.352,3.64,8.75,3.64h435.287    c3.362,0,6.476-1.4,8.714-3.64c2.243-2.239,3.644-5.319,3.644-8.715v-30.342H310.453z M326.341,285.362l0.315,0.28l0.492,0.524    l0.348,0.315l0.035,0.069l0.42,0.421l0.387,0.384l0,0l0.383,0.421c12.984,13.788,22.12,31.252,25.619,50.675l0.035,0.175    l0.105,0.595l0.105,0.665l0.035,0.105l0.104,0.734l0.07,0.385l0.067,0.385l0.104,0.771v0.104l0.105,0.666l0.07,0.559l0.035,0.211    l0.069,0.77l0.07,0.279l0.035,0.491l0.07,0.77l0,0l0.07,0.771l0.07,0.489v0.315l0.07,0.77l0.07,0.701v0.068l0.035,0.7v0.07    l0.07,0.805v0.386l0.035,0.385l0.035,0.805v0.105l0.035,0.664v0.596v0.209l0.035,0.806v0.28v0.489v0.806v0.805v0.49v0.279    l-0.035,0.805v0.21v0.596l-0.035,0.664v0.105l-0.035,0.805l-0.035,0.386v0.385l-0.07,0.77v0.105l-0.035,0.699v0.07l-0.07,0.7    l-0.07,0.77v0.315l-0.07,0.489l-0.07,0.771l-0.07,0.77l-0.035,0.49l-0.07,0.279l-0.069,0.771l-0.035,0.209l-0.07,0.561    l-0.105,0.664v0.105l-0.104,0.77l-0.067,0.385l-0.07,0.386l-0.104,0.734l-0.035,0.104l-0.105,0.666l-0.422,2.275l-0.141,0.734l0,0    c-3.007,14.698-9.236,28.207-17.916,39.791l-0.351,0.455c-0.702,0.91-1.399,1.785-2.099,2.659l-0.351,0.456l-0.07,0.069    c-0.944,1.155-1.892,2.239-2.87,3.36l-0.281,0.279l-0.105,0.104c-1.049,1.155-2.099,2.275-3.184,3.36l-0.351,0.315l-0.382,0.419    l-0.422,0.385l-0.386,0.386c-0.979,0.91-1.923,1.819-2.902,2.694l-0.421,0.35h164.171V281.127H321.828l0.421,0.35l0.035,0.07    l0.382,0.315l0.422,0.386l0.105,0.104l0.315,0.281l0.417,0.385l0.141,0.14l0.246,0.245l0.421,0.385l0.804,0.77l0.281,0.246    l0.141,0.139L326.341,285.362z M256,256.385c20.088,0,38.812,5.915,54.453,16.134h175.546v-57.675c0-3.395-1.4-6.51-3.644-8.715    c-2.238-2.238-5.316-3.639-8.714-3.639H302.02h-0.104h-91.833h-0.105h-88.542h-0.105H95.012h-0.14H69.116H69.01H38.355    c-3.433,0-6.51,1.4-8.75,3.604c-2.242,2.24-3.604,5.355-3.604,8.75v57.675h175.506C217.188,262.3,235.912,256.385,256,256.385z     M304.049,308.285c-12.284-12.283-29.291-19.914-48.049-19.914c-18.688,0-35.593,7.525-47.841,19.668l-0.211,0.246    c-12.318,12.283-19.913,29.293-19.913,48.051s7.594,35.766,19.878,48.05c12.318,12.284,29.293,19.913,48.087,19.913    c18.758,0,35.73-7.629,48.049-19.913c12.283-12.284,19.877-29.292,19.877-48.05S316.332,320.568,304.049,308.285z M256,279.763    c21.103,0,40.243,8.573,54.103,22.433c13.858,13.859,22.433,33.002,22.433,54.141c0,21.138-8.574,40.281-22.397,54.139    c-13.859,13.859-33,22.434-54.138,22.434c-21.141,0-40.247-8.574-54.141-22.434c-13.859-13.893-22.433-33.036-22.433-54.139    c0-21.139,8.574-40.281,22.433-54.141l0.281-0.244C215.964,288.268,234.999,279.763,256,279.763z M269.613,332.713L256,324.839    l-27.3,15.748v31.497l27.3,15.748l27.262-15.748v-31.497L269.613,332.713z M258.134,316.159l31.567,18.233    c1.365,0.805,2.134,2.24,2.134,3.709l0.035,36.467c0,1.68-1.014,3.15-2.414,3.85l-31.322,18.094c-1.365,0.77-3.011,0.735-4.271,0    l-31.6-18.234c-1.365-0.804-2.137-2.238-2.137-3.709v-36.467c0-1.68,0.979-3.149,2.415-3.85l31.322-18.093    C255.228,315.39,256.839,315.425,258.134,316.159z M176.067,226.813h-16.94v6.194h16.94V226.813z M154.856,218.203h25.514    c2.379,0,4.306,1.926,4.306,4.305v14.77c0,2.379-1.927,4.304-4.306,4.304h-25.514c-2.38,0-4.303-1.925-4.303-4.304v-14.77    C150.554,220.129,152.477,218.203,154.856,218.203z M73.422,193.881h17.147v-24.078H73.422V193.881z M297.608,168.229h-83.221    v25.652h83.221V168.229z M210.082,159.654h91.833c2.344,0,4.302,1.924,4.302,4.269v29.958h77.382l-27.508-55.12H155.874    l-27.473,55.12h77.378v-29.958C205.779,161.578,207.702,159.654,210.082,159.654z M453.451,229.857    c-1.927-1.925-4.552-3.08-7.454-3.08c-2.94,0-5.565,1.155-7.454,3.045c-1.927,1.924-3.081,4.549-3.081,7.49    c0,2.903,1.189,5.529,3.081,7.453c1.889,1.891,4.514,3.08,7.454,3.08c2.902,0,5.527-1.189,7.454-3.08    c1.889-1.924,3.078-4.55,3.078-7.453c0-2.836-1.119-5.391-2.906-7.28L453.451,229.857z M260.303,105.969    c0,2.379-1.959,4.305-4.303,4.305c-2.383,0-4.306-1.926-4.306-4.305V96.59c0-2.379,1.923-4.305,4.306-4.305    c2.344,0,4.303,1.926,4.303,4.305V105.969z M321.723,40.91c1.225-1.996,3.885-2.625,5.913-1.4c2.032,1.26,2.66,3.885,1.4,5.915    l-25.409,41.331c-1.26,1.994-3.916,2.625-5.913,1.399c-2.028-1.225-2.66-3.885-1.436-5.914L321.723,40.91z M290.4,108.209    c-1.261,2.029-3.886,2.659-5.914,1.399c-1.997-1.226-2.625-3.884-1.4-5.88l5.005-8.154c1.26-1.994,3.885-2.624,5.913-1.398    c1.997,1.26,2.625,3.918,1.4,5.914L290.4,108.209z M182.925,45.425c-1.225-2.03-0.593-4.655,1.4-5.915    c2.028-1.225,4.688-0.596,5.913,1.4l25.444,41.331c1.225,2.029,0.593,4.689-1.4,5.914c-2.029,1.226-4.689,0.595-5.914-1.399    L182.925,45.425z M228.875,103.729c1.26,1.996,0.632,4.654-1.4,5.88c-1.993,1.26-4.653,0.63-5.878-1.399l-5.004-8.119    c-1.26-1.996-0.628-4.654,1.4-5.914c1.993-1.226,4.653-0.596,5.878,1.398L228.875,103.729z M251.694,33.455    c0-2.379,1.923-4.304,4.306-4.304c2.344,0,4.303,1.925,4.303,4.304v47.701c0,2.38-1.959,4.305-4.303,4.305    c-2.383,0-4.306-1.925-4.306-4.305V33.455z M445.997,218.168c5.282,0,10.079,2.135,13.544,5.6l0.28,0.315    c3.288,3.43,5.317,8.119,5.317,13.229c0,5.283-2.169,10.078-5.598,13.543c-3.465,3.43-8.262,5.6-13.544,5.6    c-5.285,0-10.044-2.17-13.546-5.635c-3.465-3.43-5.598-8.225-5.598-13.508c0-5.285,2.133-10.045,5.598-13.51    C435.953,220.303,440.747,218.168,445.997,218.168z" style="fill-rule:evenodd;clip-rule:evenodd;"/></g></g><g id="Layer_1"/></svg>