<svg width="52" height="34" viewBox="0 0 52 34" fill="none" xmlns="http://www.w3.org/2000/svg">
<path d="M1 24.8636L30.5455 1" stroke="black" stroke-width="1.5" stroke-linecap="round"/>
<path d="M21.8996 24.9993L1 24.8636" stroke="black" stroke-width="1.5" stroke-linecap="round"/>
<path d="M51 24.7618L21.9231 1.00002" stroke="black" stroke-width="1.5" stroke-linecap="round"/>
<path d="M21.5 25L50.8569 24.8872" stroke="black" stroke-width="1.5" stroke-linecap="round"/>
<path d="M26 33.0909C25.5858 33.0909 25.25 32.7552 25.25 32.3409V25.0409C25.25 24.6267 25.5858 24.2909 26 24.2909V24.2909C26.4142 24.2909 26.75 24.6267 26.75 25.0409V32.3409C26.75 32.7552 26.4142 33.0909 26 33.0909V33.0909Z" fill="black"/>
<path d="M26 4.50003L51 25.0001L29.5 25.5001L26 9.99996L22.5 25.5L19 25.3293L2.00001 24.5L26 4.50003Z" fill="black"/>
</svg>
