<svg width="68" height="45" viewBox="0 0 68 45" fill="none" xmlns="http://www.w3.org/2000/svg">
<path d="M4.008 39.428V38.98C4.008 38.8493 4.07333 38.784 4.204 38.784H4.834C4.96467 38.784 5.03 38.8493 5.03 38.98V39.344C5.03 40.184 5.44533 40.604 6.276 40.604H7.508C8.33867 40.604 8.754 40.1747 8.754 39.316V38.84C8.754 38.168 8.19867 37.7293 7.088 37.524C6.62133 37.44 6.15467 37.342 5.688 37.23C5.22133 37.118 4.82467 36.9033 4.498 36.586C4.17133 36.2593 4.008 35.816 4.008 35.256V34.57C4.008 33.926 4.19 33.422 4.554 33.058C4.92733 32.6847 5.436 32.498 6.08 32.498H7.634C8.26867 32.498 8.77267 32.6847 9.146 33.058C9.51933 33.422 9.706 33.926 9.706 34.57V34.92C9.706 35.06 9.64533 35.13 9.524 35.13H8.88C8.75867 35.13 8.698 35.06 8.698 34.92V34.668C8.698 33.8187 8.28267 33.394 7.452 33.394H6.262C5.43133 33.394 5.016 33.8373 5.016 34.724V35.284C5.016 35.76 5.32867 36.0867 5.954 36.264C6.234 36.3387 6.542 36.4087 6.878 36.474C7.214 36.53 7.55 36.6093 7.886 36.712C8.23133 36.8053 8.544 36.9267 8.824 37.076C9.104 37.216 9.328 37.4353 9.496 37.734C9.67333 38.0233 9.762 38.378 9.762 38.798V39.428C9.762 40.072 9.57533 40.5807 9.202 40.954C8.82867 41.318 8.32467 41.5 7.69 41.5H6.08C5.44533 41.5 4.94133 41.318 4.568 40.954C4.19467 40.5807 4.008 40.072 4.008 39.428ZM12.6976 41.5H12.0676C11.937 41.5 11.8716 41.4347 11.8716 41.304V32.694C11.8716 32.5633 11.937 32.498 12.0676 32.498H15.3436C15.9876 32.498 16.4916 32.6847 16.8556 33.058C17.2196 33.422 17.4016 33.926 17.4016 34.57V36.124C17.4016 36.7773 17.2196 37.286 16.8556 37.65C16.4916 38.014 15.9876 38.196 15.3436 38.196H13.0336C12.9403 38.196 12.8936 38.238 12.8936 38.322V41.304C12.8936 41.4347 12.8283 41.5 12.6976 41.5ZM13.0336 37.286H15.2036C15.9876 37.286 16.3796 36.8847 16.3796 36.082V34.612C16.3796 33.8 15.9876 33.394 15.2036 33.394H13.0336C12.9403 33.394 12.8936 33.436 12.8936 33.52V37.16C12.8936 37.244 12.9403 37.286 13.0336 37.286ZM21.2848 40.604H22.7128C23.4968 40.604 23.8888 40.198 23.8888 39.386V34.612C23.8888 33.8 23.4968 33.394 22.7128 33.394H21.2848C20.5101 33.394 20.1228 33.8 20.1228 34.612V39.386C20.1228 40.198 20.5101 40.604 21.2848 40.604ZM22.8388 41.5H21.1728C20.5288 41.5 20.0201 41.318 19.6468 40.954C19.2828 40.59 19.1008 40.0813 19.1008 39.428V34.57C19.1008 33.9167 19.2828 33.408 19.6468 33.044C20.0201 32.68 20.5288 32.498 21.1728 32.498H22.8388C23.4828 32.498 23.9868 32.6847 24.3508 33.058C24.7241 33.422 24.9108 33.926 24.9108 34.57V39.428C24.9108 40.072 24.7241 40.5807 24.3508 40.954C23.9868 41.318 23.4828 41.5 22.8388 41.5ZM42.0792 41.5H37.5852C37.4545 41.5 37.3892 41.4347 37.3892 41.304V32.694C37.3892 32.5633 37.4545 32.498 37.5852 32.498H38.2152C38.3459 32.498 38.4112 32.5633 38.4112 32.694V40.45C38.4112 40.534 38.4579 40.576 38.5512 40.576H42.0792C42.2099 40.576 42.2752 40.646 42.2752 40.786V41.304C42.2752 41.4347 42.2099 41.5 42.0792 41.5ZM45.7496 40.604H47.1776C47.9616 40.604 48.3536 40.198 48.3536 39.386V34.612C48.3536 33.8 47.9616 33.394 47.1776 33.394H45.7496C44.9749 33.394 44.5876 33.8 44.5876 34.612V39.386C44.5876 40.198 44.9749 40.604 45.7496 40.604ZM47.3036 41.5H45.6376C44.9936 41.5 44.4849 41.318 44.1116 40.954C43.7476 40.59 43.5656 40.0813 43.5656 39.428V34.57C43.5656 33.9167 43.7476 33.408 44.1116 33.044C44.4849 32.68 44.9936 32.498 45.6376 32.498H47.3036C47.9476 32.498 48.4516 32.6847 48.8156 33.058C49.1889 33.422 49.3756 33.926 49.3756 34.57V39.428C49.3756 40.072 49.1889 40.5807 48.8156 40.954C48.4516 41.318 47.9476 41.5 47.3036 41.5ZM54.8879 41.5H53.3759C52.7319 41.5 52.2232 41.318 51.8499 40.954C51.4859 40.59 51.3039 40.0813 51.3039 39.428V34.57C51.3039 33.9167 51.4859 33.408 51.8499 33.044C52.2232 32.68 52.7319 32.498 53.3759 32.498H54.8879C55.5319 32.498 56.0359 32.6847 56.3999 33.058C56.7639 33.422 56.9459 33.926 56.9459 34.57V35.144C56.9459 35.284 56.8806 35.354 56.7499 35.354H56.1199C55.9892 35.354 55.9239 35.284 55.9239 35.144V34.612C55.9239 33.8 55.5366 33.394 54.7619 33.394H53.4879C52.7132 33.394 52.3259 33.8 52.3259 34.612V39.386C52.3259 40.198 52.7132 40.604 53.4879 40.604H54.7619C55.5366 40.604 55.9239 40.198 55.9239 39.386V37.818C55.9239 37.7247 55.8819 37.678 55.7979 37.678H54.4119C54.2812 37.678 54.2159 37.6173 54.2159 37.496V36.978C54.2159 36.8473 54.2812 36.782 54.4119 36.782H56.6659C56.8526 36.782 56.9459 36.88 56.9459 37.076V39.428C56.9459 40.0813 56.7639 40.59 56.3999 40.954C56.0359 41.318 55.5319 41.5 54.8879 41.5Z" fill="#967676"/>
<rect x="26.2998" y="32.5" width="9" height="1" rx="0.5" fill="#967676"/>
<path d="M30.7998 42C30.5237 42 30.2998 41.7761 30.2998 41.5V33C30.2998 32.7239 30.5237 32.5 30.7998 32.5V32.5C31.0759 32.5 31.2998 32.7239 31.2998 33V41.5C31.2998 41.7761 31.0759 42 30.7998 42V42Z" fill="#967676"/>
<path d="M30.855 12L35.1851 31.5H26.5249L30.855 12Z" fill="#967676"/>
<path d="M14.1521 27.7898L28.0318 11.7274" stroke="#967676" stroke-linecap="round"/>
<line x1="1.58219" y1="29.5137" x2="35.6735" y2="0.907667" stroke="#967676" stroke-width="1.5" stroke-linecap="round"/>
<line x1="24.6353" y1="29.5293" x2="1.75546" y2="29.5293" stroke="#967676" stroke-width="1.5" stroke-linecap="round"/>
<path d="M47.5583 27.7975L33.7043 11.7129" stroke="#967676" stroke-linecap="round"/>
<line x1="0.75" y1="-0.75" x2="45.2531" y2="-0.75" transform="matrix(-0.765012 -0.644016 -0.644016 0.765012 60.2168 30.5981)" stroke="#967676" stroke-width="1.5" stroke-linecap="round"/>
<line x1="0.75" y1="-0.75" x2="23.6298" y2="-0.75" transform="matrix(0.999999 0.0016043 0.0016043 -0.999999 36.3291 28.7688)" stroke="#967676" stroke-width="1.5" stroke-linecap="round"/>
</svg>
